<svg xmlns="http://www.w3.org/2000/svg" version="1.1" xmlns:xlink="http://www.w3.org/1999/xlink" xmlns:svgjs="http://svgjs.dev/svgjs" width="1940" height="800" preserveAspectRatio="none" viewBox="0 0 1940 800"><g mask="url(&quot;#SvgjsMask1011&quot;)" fill="none"><rect width="1940" height="800" x="0" y="0" fill="#0e2a47"></rect><path d="M361.27 537.83L426.22 575.33L426.22 650.33L361.27 687.83L296.31 650.33L296.31 575.33zM426.22 200.33L491.18 237.83L491.18 312.83L426.22 350.33L361.27 312.83L361.27 237.83zM491.18 537.83L556.13 575.33L556.13 650.33L491.18 687.83L426.22 650.33L426.22 575.33zM491.18 762.83L556.13 800.33L556.13 875.33L491.18 912.83L426.22 875.33L426.22 800.33zM621.08 537.83L686.04 575.33L686.04 650.33L621.08 687.83L556.13 650.33L556.13 575.33zM1270.62 312.83L1335.57 350.33L1335.57 425.33L1270.62 462.83L1205.67 425.33L1205.67 350.33zM1270.62 537.83L1335.57 575.33L1335.57 650.33L1270.62 687.83L1205.67 650.33L1205.67 575.33zM1400.53 87.83L1465.48 125.33L1465.48 200.33L1400.53 237.83L1335.58 200.33L1335.58 125.33zM1465.48 200.33L1530.44 237.83L1530.44 312.83L1465.48 350.33L1400.53 312.83L1400.53 237.83zM1660.34 87.83L1725.3 125.33L1725.3 200.33L1660.34 237.83L1595.39 200.33L1595.39 125.33zM1595.39 425.33L1660.34 462.83L1660.34 537.83L1595.39 575.33L1530.44 537.83L1530.44 462.83zM1660.34 762.83L1725.3 800.33L1725.3 875.33L1660.34 912.83L1595.39 875.33L1595.39 800.33zM1725.3 425.33L1790.25 462.83L1790.25 537.83L1725.3 575.33L1660.34 537.83L1660.34 462.83z" stroke="#03305d" stroke-width="2"></path><path d="M353.77 537.83 a7.5 7.5 0 1 0 15 0 a7.5 7.5 0 1 0 -15 0zM418.72 575.33 a7.5 7.5 0 1 0 15 0 a7.5 7.5 0 1 0 -15 0zM418.72 650.33 a7.5 7.5 0 1 0 15 0 a7.5 7.5 0 1 0 -15 0zM353.77 687.83 a7.5 7.5 0 1 0 15 0 a7.5 7.5 0 1 0 -15 0zM288.81 650.33 a7.5 7.5 0 1 0 15 0 a7.5 7.5 0 1 0 -15 0zM288.81 575.33 a7.5 7.5 0 1 0 15 0 a7.5 7.5 0 1 0 -15 0zM418.72 200.33 a7.5 7.5 0 1 0 15 0 a7.5 7.5 0 1 0 -15 0zM483.68 237.83 a7.5 7.5 0 1 0 15 0 a7.5 7.5 0 1 0 -15 0zM483.68 312.83 a7.5 7.5 0 1 0 15 0 a7.5 7.5 0 1 0 -15 0zM418.72 350.33 a7.5 7.5 0 1 0 15 0 a7.5 7.5 0 1 0 -15 0zM353.77 312.83 a7.5 7.5 0 1 0 15 0 a7.5 7.5 0 1 0 -15 0zM353.77 237.83 a7.5 7.5 0 1 0 15 0 a7.5 7.5 0 1 0 -15 0zM483.68 537.83 a7.5 7.5 0 1 0 15 0 a7.5 7.5 0 1 0 -15 0zM548.63 575.33 a7.5 7.5 0 1 0 15 0 a7.5 7.5 0 1 0 -15 0zM548.63 650.33 a7.5 7.5 0 1 0 15 0 a7.5 7.5 0 1 0 -15 0zM483.68 687.83 a7.5 7.5 0 1 0 15 0 a7.5 7.5 0 1 0 -15 0zM483.68 762.83 a7.5 7.5 0 1 0 15 0 a7.5 7.5 0 1 0 -15 0zM548.63 800.33 a7.5 7.5 0 1 0 15 0 a7.5 7.5 0 1 0 -15 0zM548.63 875.33 a7.5 7.5 0 1 0 15 0 a7.5 7.5 0 1 0 -15 0zM483.68 912.83 a7.5 7.5 0 1 0 15 0 a7.5 7.5 0 1 0 -15 0zM418.72 875.33 a7.5 7.5 0 1 0 15 0 a7.5 7.5 0 1 0 -15 0zM418.72 800.33 a7.5 7.5 0 1 0 15 0 a7.5 7.5 0 1 0 -15 0zM613.58 537.83 a7.5 7.5 0 1 0 15 0 a7.5 7.5 0 1 0 -15 0zM678.54 575.33 a7.5 7.5 0 1 0 15 0 a7.5 7.5 0 1 0 -15 0zM678.54 650.33 a7.5 7.5 0 1 0 15 0 a7.5 7.5 0 1 0 -15 0zM613.58 687.83 a7.5 7.5 0 1 0 15 0 a7.5 7.5 0 1 0 -15 0zM1263.12 312.83 a7.5 7.5 0 1 0 15 0 a7.5 7.5 0 1 0 -15 0zM1328.07 350.33 a7.5 7.5 0 1 0 15 0 a7.5 7.5 0 1 0 -15 0zM1328.07 425.33 a7.5 7.5 0 1 0 15 0 a7.5 7.5 0 1 0 -15 0zM1263.12 462.83 a7.5 7.5 0 1 0 15 0 a7.5 7.5 0 1 0 -15 0zM1198.17 425.33 a7.5 7.5 0 1 0 15 0 a7.5 7.5 0 1 0 -15 0zM1198.17 350.33 a7.5 7.5 0 1 0 15 0 a7.5 7.5 0 1 0 -15 0zM1263.12 537.83 a7.5 7.5 0 1 0 15 0 a7.5 7.5 0 1 0 -15 0zM1328.07 575.33 a7.5 7.5 0 1 0 15 0 a7.5 7.5 0 1 0 -15 0zM1328.07 650.33 a7.5 7.5 0 1 0 15 0 a7.5 7.5 0 1 0 -15 0zM1263.12 687.83 a7.5 7.5 0 1 0 15 0 a7.5 7.5 0 1 0 -15 0zM1198.17 650.33 a7.5 7.5 0 1 0 15 0 a7.5 7.5 0 1 0 -15 0zM1198.17 575.33 a7.5 7.5 0 1 0 15 0 a7.5 7.5 0 1 0 -15 0zM1393.03 87.83 a7.5 7.5 0 1 0 15 0 a7.5 7.5 0 1 0 -15 0zM1457.98 125.33 a7.5 7.5 0 1 0 15 0 a7.5 7.5 0 1 0 -15 0zM1457.98 200.33 a7.5 7.5 0 1 0 15 0 a7.5 7.5 0 1 0 -15 0zM1393.03 237.83 a7.5 7.5 0 1 0 15 0 a7.5 7.5 0 1 0 -15 0zM1328.08 200.33 a7.5 7.5 0 1 0 15 0 a7.5 7.5 0 1 0 -15 0zM1328.08 125.33 a7.5 7.5 0 1 0 15 0 a7.5 7.5 0 1 0 -15 0zM1522.94 237.83 a7.5 7.5 0 1 0 15 0 a7.5 7.5 0 1 0 -15 0zM1522.94 312.83 a7.5 7.5 0 1 0 15 0 a7.5 7.5 0 1 0 -15 0zM1457.98 350.33 a7.5 7.5 0 1 0 15 0 a7.5 7.5 0 1 0 -15 0zM1393.03 312.83 a7.5 7.5 0 1 0 15 0 a7.5 7.5 0 1 0 -15 0zM1652.84 87.83 a7.5 7.5 0 1 0 15 0 a7.5 7.5 0 1 0 -15 0zM1717.8 125.33 a7.5 7.5 0 1 0 15 0 a7.5 7.5 0 1 0 -15 0zM1717.8 200.33 a7.5 7.5 0 1 0 15 0 a7.5 7.5 0 1 0 -15 0zM1652.84 237.83 a7.5 7.5 0 1 0 15 0 a7.5 7.5 0 1 0 -15 0zM1587.89 200.33 a7.5 7.5 0 1 0 15 0 a7.5 7.5 0 1 0 -15 0zM1587.89 125.33 a7.5 7.5 0 1 0 15 0 a7.5 7.5 0 1 0 -15 0zM1587.89 425.33 a7.5 7.5 0 1 0 15 0 a7.5 7.5 0 1 0 -15 0zM1652.84 462.83 a7.5 7.5 0 1 0 15 0 a7.5 7.5 0 1 0 -15 0zM1652.84 537.83 a7.5 7.5 0 1 0 15 0 a7.5 7.5 0 1 0 -15 0zM1587.89 575.33 a7.5 7.5 0 1 0 15 0 a7.5 7.5 0 1 0 -15 0zM1522.94 537.83 a7.5 7.5 0 1 0 15 0 a7.5 7.5 0 1 0 -15 0zM1522.94 462.83 a7.5 7.5 0 1 0 15 0 a7.5 7.5 0 1 0 -15 0zM1652.84 762.83 a7.5 7.5 0 1 0 15 0 a7.5 7.5 0 1 0 -15 0zM1717.8 800.33 a7.5 7.5 0 1 0 15 0 a7.5 7.5 0 1 0 -15 0zM1717.8 875.33 a7.5 7.5 0 1 0 15 0 a7.5 7.5 0 1 0 -15 0zM1652.84 912.83 a7.5 7.5 0 1 0 15 0 a7.5 7.5 0 1 0 -15 0zM1587.89 875.33 a7.5 7.5 0 1 0 15 0 a7.5 7.5 0 1 0 -15 0zM1587.89 800.33 a7.5 7.5 0 1 0 15 0 a7.5 7.5 0 1 0 -15 0zM1717.8 425.33 a7.5 7.5 0 1 0 15 0 a7.5 7.5 0 1 0 -15 0zM1782.75 462.83 a7.5 7.5 0 1 0 15 0 a7.5 7.5 0 1 0 -15 0zM1782.75 537.83 a7.5 7.5 0 1 0 15 0 a7.5 7.5 0 1 0 -15 0zM1717.8 575.33 a7.5 7.5 0 1 0 15 0 a7.5 7.5 0 1 0 -15 0z" fill="#03305d"></path><path d="M45.87 38.95L89.17 63.95L89.17 113.95L45.87 138.95L2.57 113.95L2.57 63.95zM45.87 338.95L89.17 363.95L89.17 413.95L45.87 438.95L2.57 413.95L2.57 363.95zM89.17 -36.05L132.48 -11.05L132.48 38.95L89.17 63.95L45.87 38.95L45.87 -11.05zM175.78 113.95L219.08 138.95L219.08 188.95L175.78 213.95L132.48 188.95L132.48 138.95zM175.78 263.95L219.08 288.95L219.08 338.95L175.78 363.95L132.48 338.95L132.48 288.95zM305.69 38.95L348.99 63.95L348.99 113.95L305.69 138.95L262.38 113.95L262.38 63.95zM305.69 638.95L348.99 663.95L348.99 713.95L305.69 738.95L262.38 713.95L262.38 663.95zM262.38 713.95L305.69 738.95L305.69 788.95L262.38 813.95L219.08 788.95L219.08 738.95zM305.69 788.95L348.99 813.95L348.99 863.95L305.69 888.95L262.38 863.95L262.38 813.95zM348.99 263.95L392.29 288.95L392.29 338.95L348.99 363.95L305.69 338.95L305.69 288.95zM392.29 338.95L435.6 363.95L435.6 413.95L392.29 438.95L348.99 413.95L348.99 363.95zM392.29 638.95L435.6 663.95L435.6 713.95L392.29 738.95L348.99 713.95L348.99 663.95zM435.6 113.95L478.9 138.95L478.9 188.95L435.6 213.95L392.29 188.95L392.29 138.95zM435.6 263.95L478.9 288.95L478.9 338.95L435.6 363.95L392.29 338.95L392.29 288.95zM435.6 563.95L478.9 588.95L478.9 638.95L435.6 663.95L392.29 638.95L392.29 588.95zM478.9 788.95L522.2 813.95L522.2 863.95L478.9 888.95L435.6 863.95L435.6 813.95zM522.2 413.95L565.5 438.95L565.5 488.95L522.2 513.95L478.9 488.95L478.9 438.95zM522.2 563.95L565.5 588.95L565.5 638.95L522.2 663.95L478.9 638.95L478.9 588.95zM565.5 638.95L608.81 663.95L608.81 713.95L565.5 738.95L522.2 713.95L522.2 663.95zM608.81 113.95L652.11 138.95L652.11 188.95L608.81 213.95L565.5 188.95L565.5 138.95zM652.11 338.95L695.41 363.95L695.41 413.95L652.11 438.95L608.81 413.95L608.81 363.95zM652.11 788.95L695.41 813.95L695.41 863.95L652.11 888.95L608.81 863.95L608.81 813.95zM738.71 638.95L782.02 663.95L782.02 713.95L738.71 738.95L695.41 713.95L695.41 663.95zM782.02 113.95L825.32 138.95L825.32 188.95L782.02 213.95L738.71 188.95L738.71 138.95zM782.02 263.95L825.32 288.95L825.32 338.95L782.02 363.95L738.71 338.95L738.71 288.95zM825.32 338.95L868.62 363.95L868.62 413.95L825.32 438.95L782.02 413.95L782.02 363.95zM868.62 413.95L911.92 438.95L911.92 488.95L868.62 513.95L825.32 488.95L825.32 438.95zM868.62 713.95L911.92 738.95L911.92 788.95L868.62 813.95L825.32 788.95L825.32 738.95zM998.53 38.95L1041.83 63.95L1041.83 113.95L998.53 138.95L955.23 113.95L955.23 63.95zM955.23 563.95L998.53 588.95L998.53 638.95L955.23 663.95L911.92 638.95L911.92 588.95zM1128.43 563.95L1171.74 588.95L1171.74 638.95L1128.43 663.95L1085.13 638.95L1085.13 588.95zM1171.74 638.95L1215.04 663.95L1215.04 713.95L1171.74 738.95L1128.43 713.95L1128.43 663.95zM1258.34 188.95L1301.64 213.95L1301.64 263.95L1258.34 288.95L1215.04 263.95L1215.04 213.95zM1258.34 638.95L1301.64 663.95L1301.64 713.95L1258.34 738.95L1215.04 713.95L1215.04 663.95zM1215.04 713.95L1258.34 738.95L1258.34 788.95L1215.04 813.95L1171.74 788.95L1171.74 738.95zM1344.95 188.95L1388.25 213.95L1388.25 263.95L1344.95 288.95L1301.64 263.95L1301.64 213.95zM1301.64 413.95L1344.95 438.95L1344.95 488.95L1301.64 513.95L1258.34 488.95L1258.34 438.95zM1431.55 188.95L1474.86 213.95L1474.86 263.95L1431.55 288.95L1388.25 263.95L1388.25 213.95zM1518.16 38.95L1561.46 63.95L1561.46 113.95L1518.16 138.95L1474.86 113.95L1474.86 63.95zM1474.86 563.95L1518.16 588.95L1518.16 638.95L1474.86 663.95L1431.55 638.95L1431.55 588.95zM1474.86 713.95L1518.16 738.95L1518.16 788.95L1474.86 813.95L1431.55 788.95L1431.55 738.95zM1518.16 788.95L1561.46 813.95L1561.46 863.95L1518.16 888.95L1474.86 863.95L1474.86 813.95zM1604.76 638.95L1648.07 663.95L1648.07 713.95L1604.76 738.95L1561.46 713.95L1561.46 663.95zM1604.76 788.95L1648.07 813.95L1648.07 863.95L1604.76 888.95L1561.46 863.95L1561.46 813.95zM1648.07 -36.05L1691.37 -11.05L1691.37 38.95L1648.07 63.95L1604.76 38.95L1604.76 -11.05zM1691.37 188.95L1734.67 213.95L1734.67 263.95L1691.37 288.95L1648.07 263.95L1648.07 213.95zM1648.07 713.95L1691.37 738.95L1691.37 788.95L1648.07 813.95L1604.76 788.95L1604.76 738.95zM1734.67 563.95L1777.97 588.95L1777.97 638.95L1734.67 663.95L1691.37 638.95L1691.37 588.95zM1864.58 188.95L1907.88 213.95L1907.88 263.95L1864.58 288.95L1821.28 263.95L1821.28 213.95zM1951.18 488.95L1994.49 513.95L1994.49 563.95L1951.18 588.95L1907.88 563.95L1907.88 513.95zM1951.18 638.95L1994.49 663.95L1994.49 713.95L1951.18 738.95L1907.88 713.95L1907.88 663.95zM1907.88 713.95L1951.18 738.95L1951.18 788.95L1907.88 813.95L1864.58 788.95L1864.58 738.95z" stroke="rgba(6, 80, 156, 0.93)" stroke-width="2"></path></g><defs><mask id="SvgjsMask1011"><rect width="1940" height="800" fill="#ffffff"></rect></mask></defs></svg>