<svg xmlns="http://www.w3.org/2000/svg" version="1.1" xmlns:xlink="http://www.w3.org/1999/xlink" xmlns:svgjs="http://svgjs.dev/svgjs" width="1440" height="560" preserveAspectRatio="none" viewBox="0 0 1440 560">
    <g mask="url(&quot;#SvgjsMask1000&quot;)" fill="none">
        <rect width="1440" height="560" x="0" y="0" fill="#0e2a47"></rect>
        <path d="M39.37 0C39.37 13 11.31 43.45 0 43.45C-8.38 43.45 -10.33 11.4 0 0C9.36 -10.33 39.37 -8.73 39.37 0" stroke="rgba(51, 121, 194, 0.58)" stroke-width="2"></path>
        <path d="M420 21C381.06 22.69 373.33 85.83 373.33 140C373.33 166.97 390.97 179.12 420 183.27C484.31 192.46 497.55 184.66 560 166.67C572.64 163.03 570.18 151.95 570.18 140C570.18 134.55 565.1 135.92 560 131.88C490.01 76.42 474.4 18.63 420 21" stroke="rgba(51, 121, 194, 0.58)" stroke-width="2"></path>
        <path d="M840 247.06C823.31 247.06 813.95 265.36 813.95 280C813.95 291.17 825.35 298.67 840 298.67C871.31 298.67 905.88 292.43 905.88 280C905.88 266.63 869.27 247.06 840 247.06" stroke="rgba(51, 121, 194, 0.58)" stroke-width="2"></path>
        <path d="M280 408.49C271.87 408.49 263.85 412.89 263.85 420C263.85 429.99 271.82 442.7 280 442.7C288.29 442.7 296.8 429.94 296.8 420C296.8 412.83 288.35 408.49 280 408.49" stroke="rgba(51, 121, 194, 0.58)" stroke-width="2"></path>
        <path d="M700 372.45C660.28 372.45 610 398.26 610 420C610 440.84 658.92 457.61 700 457.61C721.92 457.61 736 439.85 736 420C736 397.27 723.28 372.45 700 372.45" stroke="rgba(51, 121, 194, 0.58)" stroke-width="2"></path>
        <path d="M236.55 140C249.96 119.6 260.03 114.29 280 114.29C294.11 114.29 291.77 127.74 304.71 140C361.77 194.05 356.49 202.89 420 246.91C457.47 272.89 491.1 245.54 506.67 280C530.22 332.09 523.66 361.22 498.24 420C480.32 461.44 456.22 480.45 420 480.45C390.5 480.45 397.15 445.99 366.8 420C327.15 386.04 323.13 360.55 280 360.55C238 360.55 196.54 383.25 196.54 420C196.54 471.63 235.62 481.1 280 537.3C290.9 551.1 307.1 553.58 307.1 560C307.1 564.93 293.55 560 280 560C210 560 210 560 140 560C70 560 35 595 0 560C-35 525 0 490 0 420C0 398.55 -15.78 387.14 0 377.1C54.22 342.6 79.09 365.47 140 330.91C164.65 316.92 157.66 306.59 171.11 280C205.94 211.13 195.51 202.45 236.55 140" stroke="rgba(51, 121, 194, 0.58)" stroke-width="2"></path>
        <path d="M560 81.16C513.83 41.78 469.68 23.27 469.68 0C469.68 -17.31 514.84 0 560 0C630 0 630 0 700 0C770 0 770 0 840 0C910 0 910 0 980 0C1012.89 0 1024.27 -19.72 1045.78 0C1094.27 44.44 1078.52 68.8 1120 128.33C1127.3 138.8 1143.33 132.83 1143.33 140C1143.33 148.32 1134.46 156.36 1120 159.31C1052.8 173.02 1049.43 177.1 980 173.33C909.43 169.5 895.95 120 840 144.12C772.23 173.33 788.92 214.66 732.56 280C718.92 295.81 718.64 306.42 700 306.42C663.47 306.42 634.43 310.7 622.22 280C601.34 227.49 652.43 199.46 633.82 140C621.32 100.04 595.9 111.78 560 81.16" stroke="rgba(51, 121, 194, 0.58)" stroke-width="2"></path>
        <path d="M1301.18 140C1348.01 81.09 1344.71 75.08 1400 26.1C1423.73 5.08 1428.09 5.81 1459.23 0C1498.09 -7.24 1525.22 -25.61 1540 0C1565.61 44.39 1540 70 1540 140C1540 210 1540 210 1540 280C1540 308.83 1559.53 336.72 1540 337.65C1489.53 340.05 1470.63 288.78 1400 286.67C1330.63 284.6 1326.24 331.4 1260 329.3C1221.24 328.07 1190 308.59 1190 280C1190 245.05 1227.55 243.08 1260 202.22C1283.14 173.08 1278.01 169.15 1301.18 140" stroke="rgba(51, 121, 194, 0.58)" stroke-width="2"></path>
        <path d="M786 420C814.01 389.42 809.37 357 840 357C879.33 357 884.8 386.3 925.91 420C954.8 443.67 947.85 453.75 980 471.74C1044.9 508.06 1050.9 498.23 1120 528.62C1151.23 542.36 1180.67 551.69 1180.67 560C1180.67 567.38 1150.34 560 1120 560C1050 560 1050 560 980 560C910 560 910 560 840 560C770 560 770 560 700 560C675.3 560 650.59 570.34 650.59 560C650.59 545.27 675.53 535.15 700 509.85C743.23 465.15 744.01 465.84 786 420" stroke="rgba(51, 121, 194, 0.58)" stroke-width="2"></path>
        <path d="M1318.05 560C1318.05 545.75 1361.76 507.5 1400 507.5C1429.4 507.5 1453.33 544.67 1453.33 560C1453.33 570.92 1426.66 560 1400 560C1359.03 560 1318.05 572 1318.05 560" stroke="rgba(51, 121, 194, 0.58)" stroke-width="2"></path>
        <path d="M560 30.43C541.14 30.43 526.13 8.72 526.13 0C526.13 -6.49 543.07 0 560 0C589.16 0 618.33 -7.15 618.33 0C618.33 8.06 587.24 30.43 560 30.43" stroke="rgba(51, 121, 194, 0.58)" stroke-width="2"></path>
        <path d="M697.45 140C697.45 136.76 698.18 133.64 700 133.64C702.25 133.64 705.6 136.61 705.6 140C705.6 144.16 702.17 148.75 700 148.75C698.1 148.75 697.45 144.31 697.45 140" stroke="rgba(51, 121, 194, 0.58)" stroke-width="2"></path>
        <path d="M840 53.85C804.12 43.42 781.67 15.52 781.67 0C781.67 -11.4 810.84 0 840 0C910 0 910 0 980 0C991.81 0 1003.61 -7.92 1003.61 0C1003.61 20.9 1005.19 49.36 980 57.65C923.38 76.29 903.29 72.25 840 53.85" stroke="rgba(51, 121, 194, 0.58)" stroke-width="2"></path>
        <path d="M1352.65 140C1352.65 111.29 1373.37 85.42 1400 85.42C1433.64 85.42 1473.18 110.47 1473.18 140C1473.18 172.76 1432.85 210 1400 210C1372.59 210 1352.65 173.58 1352.65 140" stroke="rgba(51, 121, 194, 0.58)" stroke-width="2"></path>
        <path d="M235.93 280C235.93 248.24 252.49 207.88 280 207.88C315.56 207.88 362.07 251.04 362.07 280C362.07 303.4 318.91 312.6 280 312.6C255.84 312.6 235.93 300.6 235.93 280" stroke="rgba(51, 121, 194, 0.58)" stroke-width="2"></path>
        <path d="M1523.85 280C1523.85 273.14 1535.35 262.5 1540 262.5C1543.42 262.5 1540 271.25 1540 280C1540 283.09 1542.13 286.18 1540 286.18C1534.05 286.18 1523.85 284.98 1523.85 280" stroke="rgba(51, 121, 194, 0.58)" stroke-width="2"></path>
        <path d="M836 420C836 417.3 837.73 415.33 840 415.33C842.91 415.33 846.36 416.99 846.36 420C846.36 424.92 842.69 431.2 840 431.2C837.51 431.2 836 425.23 836 420" stroke="rgba(51, 121, 194, 0.58)" stroke-width="2"></path>
        <path d="M959.26 560C959.26 556.73 969.03 547.83 980 547.83C996.9 547.83 1015 556.87 1015 560C1015 562.96 997.5 560 980 560C969.63 560 959.26 562.82 959.26 560" stroke="rgba(51, 121, 194, 0.58)" stroke-width="2"></path>
    </g>
    <defs>
        <mask id="SvgjsMask1000">
            <rect width="1440" height="560" fill="#ffffff"></rect>
        </mask>
    </defs>
</svg>