<svg xmlns="http://www.w3.org/2000/svg" version="1.1" xmlns:xlink="http://www.w3.org/1999/xlink" xmlns:svgjs="http://svgjs.dev/svgjs" width="1440" height="560" preserveAspectRatio="none" viewBox="0 0 1440 560"><g mask="url(&quot;#SvgjsMask1225&quot;)" fill="none"><rect width="1440" height="560" x="0" y="0" fill="url(&quot;#SvgjsLinearGradient1226&quot;)"></rect><path d="M0 0L426.31 0L0 230.56z" fill="rgba(255, 255, 255, .1)"></path><path d="M0 230.56L426.31 0L924.23 0L0 411.62z" fill="rgba(255, 255, 255, .075)"></path><path d="M0 411.62L924.23 0L982.45 0L0 434.73z" fill="rgba(255, 255, 255, .05)"></path><path d="M0 434.73L982.45 0L1180.92 0L0 506.24z" fill="rgba(255, 255, 255, .025)"></path><path d="M1440 560L1067.58 560L1440 325.34000000000003z" fill="rgba(0, 0, 0, .1)"></path><path d="M1440 325.34000000000003L1067.58 560L558.9799999999999 560L1440 286.97z" fill="rgba(0, 0, 0, .075)"></path><path d="M1440 286.97L558.98 560L228.85000000000002 560L1440 177.97000000000003z" fill="rgba(0, 0, 0, .05)"></path><path d="M1440 177.97000000000003L228.8499999999999 560L192.3199999999999 560L1440 113.53000000000003z" fill="rgba(0, 0, 0, .025)"></path></g><defs><mask id="SvgjsMask1225"><rect width="1440" height="560" fill="#ffffff"></rect></mask><linearGradient x1="15.28%" y1="139.29%" x2="84.72%" y2="-39.29%" gradientUnits="userSpaceOnUse" id="SvgjsLinearGradient1226"><stop stop-color="#0e2a47" offset="0"></stop><stop stop-color="rgba(244, 249, 255, 1)" offset="1"></stop></linearGradient></defs></svg>